<svg xmlns="http://www.w3.org/2000/svg" viewBox="0 0 512 512">
  <defs>
    <linearGradient id="blue-gradient" x1="0%" y1="0%" x2="100%" y2="100%">
      <stop offset="0%" style="stop-color:#60a5fa;stop-opacity:1" />
      <stop offset="100%" style="stop-color:#2563eb;stop-opacity:1" />
    </linearGradient>
    <filter id="glow" x="-20%" y="-20%" width="140%" height="140%">
      <feGaussianBlur stdDeviation="5" result="blur" />
      <feComposite in="SourceGraphic" in2="blur" operator="over" />
    </filter>
  </defs>
  
  <!-- Signal Waves -->
  <g stroke="url(#blue-gradient)" stroke-width="35" stroke-linecap="round" fill="none">
    <path d="M120 120 A 200 200 0 0 1 392 120" transform="rotate(-45 256 256) translate(-100, 0)" opacity="0.6" />
    <path d="M160 160 A 140 140 0 0 1 352 160" transform="rotate(-45 256 256) translate(-100, 0)" opacity="0.8" />
    <path d="M200 200 A 80 80 0 0 1 312 200" transform="rotate(-45 256 256) translate(-100, 0)" />
  </g>

  <!-- Phone Handset -->
  <path d="M372.8 307.2c-15.5-15.5-40.6-15.5-56.1 0l-25.5 25.5c-4.2 4.2-10.4 5.3-15.6 2.7-27.6-13.8-62.7-48.9-76.5-76.5-2.6-5.2-1.5-11.4 2.7-15.6l25.5-25.5c15.5-15.5 15.5-40.6 0-56.1l-66.3-66.3c-15.5-15.5-40.6-15.5-56.1 0l-25.5 25.5c-34.1 34.1-34.1 89.4 0 123.5 59.7 59.7 156.6 156.6 216.3 216.3 34.1 34.1 89.4 34.1 123.5 0l25.5-25.5c15.5-15.5 15.5-40.6 0-56.1l-66.3-66.3z" 
        fill="url(#blue-gradient)" 
        transform="translate(40, 40)" />
</svg>