<svg width="512" height="512" viewBox="0 0 512 512" fill="none" xmlns="http://www.w3.org/2000/svg">
  <!-- Main Vertical Column (The Block) -->
  <rect x="220" y="20" width="72" height="472" rx="4" fill="#3E2723" stroke="#212121" stroke-width="4"/>
  
  <!-- Horizontal Slots (Connectors) -->
  <g fill="#E0E0E0">
    <rect x="228" y="40" width="56" height="8" rx="2"/>
    <rect x="228" y="64" width="56" height="8" rx="2"/>
    <rect x="228" y="88" width="56" height="8" rx="2"/>
    <rect x="228" y="112" width="56" height="8" rx="2"/>
    <rect x="228" y="136" width="56" height="8" rx="2"/>
    <rect x="228" y="160" width="56" height="8" rx="2"/>
    <rect x="228" y="184" width="56" height="8" rx="2"/>
    <rect x="228" y="208" width="56" height="8" rx="2"/>
    <rect x="228" y="232" width="56" height="8" rx="2"/>
    <rect x="228" y="256" width="56" height="8" rx="2"/>
    <rect x="228" y="280" width="56" height="8" rx="2"/>
    <rect x="228" y="304" width="56" height="8" rx="2"/>
    <rect x="228" y="328" width="56" height="8" rx="2"/>
    <rect x="228" y="352" width="56" height="8" rx="2"/>
    <rect x="228" y="376" width="56" height="8" rx="2"/>
    <rect x="228" y="400" width="56" height="8" rx="2"/>
    <rect x="228" y="424" width="56" height="8" rx="2"/>
    <rect x="228" y="448" width="56" height="8" rx="2"/>
  </g>

  <!-- Left Wing (Leg) -->
  <path d="M220 20L120 20L100 256L120 492L220 492V20Z" fill="#9E9E9E" fill-opacity="0.2" stroke="#424242" stroke-width="4"/>
  <!-- Left Wing Truss Pattern -->
  <path d="M220 100L120 20M220 180L120 100M220 260L120 180M220 340L120 260M220 420L120 340M220 492L120 420" stroke="#616161" stroke-width="3"/>
  <path d="M120 100L220 20M120 180L220 100M120 260L220 180M120 340L220 260M120 420L220 340M120 492L220 420" stroke="#616161" stroke-width="3"/>

  <!-- Right Wing (Leg) -->
  <path d="M292 20L392 20L412 256L392 492L292 492V20Z" fill="#9E9E9E" fill-opacity="0.2" stroke="#424242" stroke-width="4"/>
  <!-- Right Wing Truss Pattern -->
  <path d="M292 100L392 20M292 180L392 100M292 260L392 180M292 340L392 260M292 420L392 340M292 492L392 420" stroke="#616161" stroke-width="3"/>
  <path d="M392 100L292 20M392 180L292 100M392 260L292 180M392 340L292 260M392 420L292 340M392 492L292 420" stroke="#616161" stroke-width="3"/>

</svg>